<?xml version="1.0" encoding="UTF-8" standalone="no"?>
<!DOCTYPE svg PUBLIC "-//W3C//DTD SVG 1.1//EN" "http://www.w3.org/Graphics/SVG/1.1/DTD/svg11.dtd">
<svg xmlns:xlink="http://www.w3.org/1999/xlink" version="1.1" xmlns="http://www.w3.org/2000/svg"
     preserveAspectRatio="xMidYMid meet" viewBox="0 0 640 416" width="640" height="416">
    <defs>
        <path d="M320 0C205.12 0 112 93.12 112 208C112 322.87 205.12 416 320 416C434.87 416 528 322.87 528 208C528 93.12 434.87 0 320 0Z"
              id="h5PiDrGnQj"></path>
        <path d="M327.68 119.38L304.8 96.5L249.66 132L265.17 147.5L228.43 313.35C289.8 374.71 323.89 408.8 330.7 415.62C435.64 410.1 519.98 327.17 527.27 222.34C523.72 218.79 505.97 201.04 474.03 169.09L437.28 157L362.28 82L327.68 119.38Z"
              id="c2hBBdnpSP"></path>
        <path d="M270.16 96.5L249.66 132L284.3 132L304.8 96.5L270.16 96.5Z" id="c8d2mnLPi"></path>
        <path d="M327.65 82L298.78 132L333.42 132L362.29 82L327.65 82Z" id="bdS35RVt3"></path>
        <path d="M391 155.91L391 208.1L421.67 235.86L421.67 185.2C431.58 185.2 437.09 185.2 438.19 185.2C448.6 185.2 453.74 190.33 453.74 198.38C453.74 202.25 453.74 233.24 453.74 237.11C453.74 245.16 448.88 250.57 438.19 250.57C435.04 250.57 419.31 250.57 391 250.57L391 280C418.65 280 434.01 280 437.08 280C461.79 280.14 484.97 267.78 484.97 239.19C484.97 235.01 484.97 201.59 484.97 197.41C484.97 168.54 461.79 155.91 437.08 155.91C437.08 155.91 421.72 155.91 391 155.91Z"
              id="fRgM6idXV"></path>
        <path d="M213.98 141C213.98 221.43 213.98 266.11 213.98 275.05C213.98 313.51 243.25 330.13 274.44 329.95C279.37 329.95 318.74 329.95 323.66 329.95C354.86 330.13 384.13 313.51 384.13 275.05C384.13 266.11 384.13 221.43 384.13 141L213.98 141Z"
              id="b1yeKIHGBf"></path>
    </defs>
    <g>
        <g>
            <g>
                <use xlink:href="#h5PiDrGnQj" opacity="1" fill="#7289da" fill-opacity="1"></use>
                <g>
                    <use xlink:href="#h5PiDrGnQj" opacity="1" fill-opacity="0" stroke="#000000" stroke-width="0.29"
                         stroke-opacity="0"></use>
                </g>
            </g>
            <g>
                <use xlink:href="#c2hBBdnpSP" opacity="1" fill="#6273b1" fill-opacity="1"></use>
                <g>
                    <use xlink:href="#c2hBBdnpSP" opacity="1" fill-opacity="0" stroke="#000000" stroke-width="1"
                         stroke-opacity="0"></use>
                </g>
            </g>
            <g>
                <use xlink:href="#c8d2mnLPi" opacity="1" fill="#f89820" fill-opacity="1"></use>
                <g>
                    <use xlink:href="#c8d2mnLPi" opacity="1" fill-opacity="0" stroke="#000000" stroke-width="1.12"
                         stroke-opacity="0"></use>
                </g>
            </g>
            <g>
                <use xlink:href="#bdS35RVt3" opacity="1" fill="#f89820" fill-opacity="1"></use>
                <g>
                    <use xlink:href="#bdS35RVt3" opacity="1" fill-opacity="0" stroke="#000000" stroke-width="1.12"
                         stroke-opacity="0"></use>
                </g>
            </g>
            <g>
                <use xlink:href="#fRgM6idXV" opacity="1" fill="#ffffff" fill-opacity="1"></use>
                <g>
                    <use xlink:href="#fRgM6idXV" opacity="1" fill-opacity="0" stroke="#000000" stroke-width="0.37"
                         stroke-opacity="0"></use>
                </g>
            </g>
            <g>
                <use xlink:href="#b1yeKIHGBf" opacity="1" fill="#ffffff" fill-opacity="1"></use>
                <g>
                    <use xlink:href="#b1yeKIHGBf" opacity="1" fill-opacity="0" stroke="#000000" stroke-width="1.81"
                         stroke-opacity="0"></use>
                </g>
            </g>
        </g>
    </g>
</svg>