<?xml version="1.0" encoding="UTF-8" standalone="no"?>
<!DOCTYPE svg PUBLIC "-//W3C//DTD SVG 1.1//EN" "http://www.w3.org/Graphics/SVG/1.1/DTD/svg11.dtd">
<svg version="1.1" xmlns="http://www.w3.org/2000/svg" xmlns:xlink="http://www.w3.org/1999/xlink" preserveAspectRatio="xMidYMid meet" viewBox="0 0 500 500" width="500" height="500"><defs><path d="M288.51 0.06L288.99 0.12L289.45 0.21L289.91 0.32L290.35 0.46L290.77 0.62L291.18 0.8L291.58 1.01L291.97 1.23L292.35 1.48L292.72 1.75L293.07 2.04L293.42 2.35L293.75 2.67L294.08 3.02L294.39 3.39L294.7 3.77L295 4.17L295.29 4.58L295.57 5.02L295.85 5.46L296.12 5.93L296.38 6.4L296.64 6.9L296.89 7.4L297.13 7.92L297.37 8.45L297.61 8.99L297.84 9.55L298.07 10.12L298.29 10.69L298.51 11.28L298.73 11.88L298.95 12.48L299.16 13.1L299.37 13.72L299.58 14.35L299.79 14.99L300 15.63L310.81 56.18L314.21 57.23L321.71 59.9L329.07 62.84L336.29 66.06L343.35 69.55L343.93 69.86L380.38 48.77L380.98 48.47L381.58 48.16L382.17 47.87L382.76 47.58L383.35 47.29L383.93 47.02L384.51 46.75L385.08 46.49L385.64 46.24L386.21 46L386.76 45.77L387.31 45.56L387.86 45.35L388.4 45.16L388.93 44.98L389.46 44.81L389.98 44.66L390.5 44.52L391.01 44.4L391.52 44.29L392.02 44.2L392.51 44.13L393 44.08L393.48 44.05L393.96 44.03L394.43 44.04L394.89 44.06L395.34 44.11L395.79 44.18L396.23 44.27L396.67 44.38L397.1 44.52L397.52 44.69L397.93 44.87L398.34 45.09L398.74 45.33L399.13 45.59L399.52 45.89L399.89 46.21L400.26 46.56L453.3 99.6L453.65 99.97L453.97 100.35L454.27 100.74L454.55 101.13L454.79 101.54L455.02 101.96L455.22 102.38L455.39 102.82L455.54 103.26L455.67 103.7L455.77 104.16L455.86 104.62L455.92 105.09L455.96 105.57L455.98 106.05L455.98 106.54L455.95 107.03L455.91 107.53L455.86 108.04L455.78 108.55L455.68 109.07L455.57 109.59L455.44 110.11L455.29 110.64L455.13 111.17L454.95 111.71L454.76 112.25L454.55 112.8L454.33 113.34L454.09 113.89L453.85 114.44L453.58 115L453.31 115.55L453.02 116.11L452.73 116.67L452.42 117.23L452.1 117.79L451.77 118.36L451.43 118.92L451.09 119.48L430.02 155.86L430.46 156.66L433.95 163.72L437.17 170.94L440.11 178.3L442.77 185.8L443.82 189.19L484.38 200L485.02 200.16L485.66 200.32L486.29 200.48L486.91 200.65L487.53 200.83L488.13 201.02L488.73 201.21L489.32 201.41L489.89 201.62L490.46 201.83L491.01 202.05L491.56 202.28L492.09 202.52L492.61 202.77L493.11 203.02L493.6 203.28L494.08 203.55L494.54 203.83L494.99 204.12L495.43 204.42L495.84 204.72L496.24 205.04L496.62 205.37L496.99 205.7L497.33 206.04L497.66 206.4L497.97 206.76L498.26 207.14L498.53 207.53L498.78 207.92L499 208.33L499.21 208.75L499.39 209.18L499.55 209.62L499.69 210.07L499.8 210.53L499.89 211.01L499.95 211.49L499.99 211.99L500 212.5L500 287.5L499.99 288.01L499.95 288.51L499.89 288.99L499.8 289.46L499.69 289.91L499.55 290.35L499.39 290.77L499.21 291.18L499 291.59L498.78 291.97L498.53 292.35L498.26 292.72L497.97 293.07L497.66 293.42L497.33 293.75L496.99 294.08L496.62 294.39L496.24 294.7L495.84 295L495.43 295.29L494.99 295.57L494.54 295.85L494.08 296.12L493.6 296.38L493.11 296.64L492.61 296.89L492.09 297.13L491.56 297.37L491.01 297.61L490.46 297.84L489.89 298.07L489.32 298.29L488.73 298.51L488.13 298.73L487.53 298.95L486.91 299.16L486.29 299.37L485.66 299.58L485.02 299.79L484.38 300L443.82 310.81L442.77 314.21L440.11 321.71L437.17 329.07L433.95 336.29L430.46 343.35L430.06 344.06L451.09 380.38L451.43 380.94L451.77 381.5L452.1 382.07L452.42 382.63L452.73 383.19L453.02 383.75L453.31 384.31L453.58 384.86L453.85 385.42L454.09 385.97L454.33 386.52L454.55 387.06L454.76 387.61L454.95 388.15L455.13 388.68L455.29 389.22L455.44 389.75L455.57 390.27L455.68 390.79L455.78 391.31L455.86 391.82L455.91 392.33L455.95 392.83L455.98 393.32L455.98 393.81L455.96 394.29L455.92 394.77L455.86 395.24L455.77 395.7L455.67 396.16L455.54 396.6L455.39 397.04L455.22 397.48L455.02 397.9L454.79 398.32L454.55 398.73L454.27 399.12L453.97 399.51L453.65 399.89L453.3 400.26L400.26 453.3L399.89 453.65L399.52 453.97L399.13 454.27L398.74 454.53L398.34 454.77L397.93 454.99L397.52 455.17L397.1 455.34L396.67 455.47L396.23 455.59L395.79 455.68L395.34 455.75L394.89 455.8L394.43 455.82L393.96 455.83L393.48 455.81L393 455.78L392.51 455.73L392.02 455.65L391.52 455.57L391.01 455.46L390.5 455.34L389.98 455.2L389.46 455.05L388.93 454.88L388.4 454.7L387.86 454.51L387.31 454.3L386.76 454.09L386.21 453.86L385.64 453.62L385.08 453.37L384.51 453.11L383.93 452.84L383.35 452.57L382.76 452.28L382.17 451.99L381.58 451.7L380.98 451.39L380.38 451.09L344.06 430.06L343.35 430.46L336.29 433.95L329.07 437.17L321.71 440.11L314.21 442.77L310.81 443.82L300 484.38L299.79 485.02L299.58 485.66L299.37 486.29L299.16 486.91L298.95 487.53L298.73 488.13L298.51 488.73L298.29 489.32L298.07 489.89L297.84 490.46L297.61 491.01L297.37 491.56L297.13 492.09L296.89 492.61L296.64 493.11L296.38 493.6L296.12 494.08L295.85 494.55L295.57 494.99L295.29 495.43L295 495.84L294.7 496.24L294.39 496.62L294.08 496.99L293.75 497.33L293.42 497.66L293.07 497.97L292.72 498.26L292.35 498.53L291.97 498.78L291.58 499L291.18 499.21L290.77 499.39L290.35 499.55L289.91 499.69L289.45 499.8L288.99 499.89L288.51 499.95L288.01 499.99L287.5 500L212.5 500L211.99 499.99L211.49 499.95L211.01 499.89L210.53 499.8L210.07 499.69L209.62 499.55L209.18 499.39L208.75 499.21L208.33 499L207.92 498.78L207.53 498.53L207.14 498.26L206.76 497.97L206.4 497.66L206.04 497.33L205.7 496.99L205.36 496.62L205.04 496.24L204.72 495.84L204.42 495.43L204.12 494.99L203.83 494.55L203.55 494.08L203.28 493.6L203.02 493.11L202.76 492.61L202.52 492.09L202.28 491.56L202.05 491.01L201.83 490.46L201.62 489.89L201.41 489.32L201.21 488.73L201.02 488.13L200.83 487.53L200.65 486.91L200.48 486.29L200.32 485.66L200.16 485.02L200 484.38L189.19 443.82L185.8 442.77L178.3 440.11L170.94 437.17L163.72 433.95L156.66 430.46L155.8 429.99L119.63 450.94L119.07 451.29L118.5 451.62L117.94 451.95L117.38 452.27L116.82 452.58L116.26 452.88L115.7 453.16L115.15 453.44L114.59 453.7L114.04 453.95L113.49 454.18L112.94 454.4L112.4 454.61L111.86 454.8L111.32 454.98L110.79 455.14L110.26 455.29L109.74 455.42L109.22 455.53L108.7 455.63L108.19 455.71L107.68 455.77L107.18 455.81L106.69 455.83L106.2 455.83L105.72 455.81L105.24 455.77L104.77 455.71L104.31 455.62L103.85 455.52L103.4 455.39L102.96 455.24L102.53 455.07L102.11 454.87L101.69 454.65L101.28 454.4L100.88 454.13L100.49 453.83L100.11 453.5L99.74 453.15L46.71 400.12L46.36 399.75L46.04 399.37L45.74 398.98L45.48 398.59L45.24 398.19L45.02 397.78L44.83 397.37L44.67 396.95L44.53 396.52L44.42 396.09L44.33 395.64L44.26 395.2L44.21 394.74L44.19 394.28L44.18 393.81L44.19 393.33L44.23 392.85L44.28 392.37L44.35 391.87L44.44 391.37L44.55 390.87L44.67 390.35L44.81 389.84L44.96 389.31L45.13 388.78L45.31 388.25L45.5 387.71L45.7 387.16L45.92 386.61L46.15 386.06L46.39 385.5L46.64 384.93L46.9 384.36L47.17 383.78L47.44 383.2L47.73 382.62L48.02 382.03L48.31 381.43L48.61 380.83L48.92 380.23L69.9 343.99L69.55 343.35L66.06 336.29L62.84 329.07L59.9 321.71L57.23 314.21L56.18 310.81L15.63 300L14.99 299.79L14.35 299.58L13.72 299.37L13.1 299.16L12.48 298.95L11.88 298.73L11.28 298.51L10.69 298.29L10.12 298.07L9.55 297.84L8.99 297.61L8.45 297.37L7.92 297.13L7.4 296.89L6.9 296.64L6.4 296.38L5.93 296.12L5.46 295.85L5.01 295.57L4.58 295.29L4.17 295L3.77 294.7L3.38 294.39L3.02 294.08L2.67 293.75L2.35 293.42L2.04 293.07L1.75 292.72L1.48 292.35L1.23 291.97L1.01 291.59L0.8 291.18L0.62 290.77L0.46 290.35L0.32 289.91L0.21 289.46L0.12 288.99L0.06 288.51L0.02 288.01L0 287.5L0 212.5L0.02 211.99L0.06 211.49L0.12 211.01L0.21 210.53L0.32 210.07L0.46 209.62L0.62 209.18L0.8 208.75L1.01 208.33L1.23 207.92L1.48 207.53L1.75 207.14L2.04 206.76L2.35 206.4L2.67 206.04L3.02 205.7L3.38 205.37L3.77 205.04L4.17 204.72L4.58 204.42L5.01 204.12L5.46 203.83L5.93 203.55L6.4 203.28L6.9 203.02L7.4 202.77L7.92 202.52L8.45 202.28L8.99 202.05L9.55 201.83L10.12 201.62L10.69 201.41L11.28 201.21L11.88 201.02L12.48 200.83L13.1 200.65L13.72 200.48L14.35 200.32L14.99 200.16L15.63 200L56.18 189.19L57.23 185.8L59.9 178.3L62.84 170.94L66.06 163.72L69.55 156.66L69.94 155.94L48.92 119.63L48.61 119.03L48.31 118.43L48.02 117.83L47.73 117.24L47.44 116.66L47.17 116.08L46.9 115.5L46.64 114.93L46.39 114.36L46.15 113.8L45.92 113.25L45.7 112.7L45.5 112.15L45.31 111.61L45.13 111.08L44.96 110.55L44.81 110.02L44.67 109.51L44.55 108.99L44.44 108.49L44.35 107.99L44.28 107.49L44.23 107.01L44.19 106.53L44.18 106.05L44.19 105.58L44.21 105.12L44.26 104.66L44.33 104.22L44.42 103.77L44.53 103.34L44.67 102.91L44.83 102.49L45.02 102.07L45.24 101.67L45.48 101.27L45.74 100.88L46.04 100.49L46.36 100.11L46.71 99.74L99.74 46.71L100.11 46.36L100.49 46.03L100.88 45.73L101.28 45.46L101.69 45.21L102.11 44.99L102.53 44.79L102.96 44.62L103.4 44.47L103.85 44.34L104.31 44.23L104.77 44.15L105.24 44.09L105.72 44.05L106.2 44.03L106.69 44.03L107.18 44.05L107.68 44.09L108.19 44.15L108.7 44.23L109.22 44.33L109.74 44.44L110.26 44.57L110.79 44.71L111.32 44.88L111.86 45.06L112.4 45.25L112.94 45.46L113.49 45.68L114.04 45.91L114.59 46.16L115.15 46.42L115.7 46.7L116.26 46.98L116.82 47.28L117.38 47.59L117.94 47.91L118.5 48.24L119.07 48.57L119.63 48.92L155.94 69.94L156.66 69.55L163.72 66.06L170.94 62.84L178.3 59.9L185.8 57.23L189.19 56.18L200 15.63L200.16 14.99L200.32 14.35L200.48 13.72L200.65 13.1L200.83 12.48L201.02 11.88L201.21 11.28L201.41 10.69L201.62 10.12L201.83 9.55L202.05 8.99L202.28 8.45L202.52 7.92L202.76 7.4L203.02 6.9L203.28 6.4L203.55 5.93L203.83 5.46L204.12 5.02L204.42 4.58L204.72 4.17L205.04 3.77L205.36 3.39L205.7 3.02L206.04 2.67L206.4 2.35L206.76 2.04L207.14 1.75L207.53 1.48L207.92 1.23L208.33 1.01L208.75 0.8L209.18 0.62L209.62 0.46L210.07 0.32L210.53 0.21L211.01 0.12L211.49 0.06L211.99 0.02L212.5 0L287.5 0L288.01 0.02L288.51 0.06ZM241.03 140.99L236.62 141.44L232.26 142.06L227.96 142.85L223.72 143.81L219.54 144.93L215.43 146.21L211.39 147.64L207.43 149.22L203.54 150.96L199.74 152.84L196.02 154.86L192.39 157.02L188.85 159.31L185.41 161.73L182.06 164.28L178.82 166.96L175.69 169.75L172.66 172.66L169.75 175.69L166.96 178.82L164.28 182.07L161.73 185.41L159.31 188.85L157.02 192.39L154.86 196.02L152.84 199.74L150.96 203.54L149.22 207.43L147.64 211.39L146.2 215.43L144.93 219.54L143.81 223.72L142.85 227.96L142.06 232.26L141.44 236.62L140.99 241.03L140.72 245.5L140.63 250L140.72 254.51L140.99 258.97L141.44 263.39L142.06 267.75L142.85 272.05L143.81 276.29L144.93 280.47L146.2 284.58L147.64 288.61L149.22 292.58L150.96 296.46L152.84 300.27L154.86 303.99L157.02 307.62L159.31 311.16L161.73 314.6L164.28 317.94L166.96 321.18L169.75 324.32L172.66 327.34L175.69 330.26L178.82 333.05L182.06 335.73L185.41 338.28L188.85 340.7L192.39 342.99L196.02 345.15L199.74 347.17L203.54 349.05L207.43 350.78L211.39 352.37L215.43 353.8L219.54 355.08L223.72 356.2L227.96 357.16L232.26 357.95L236.62 358.57L241.03 359.02L245.5 359.29L250 359.38L254.51 359.29L258.97 359.02L263.39 358.57L267.74 357.95L272.05 357.16L276.29 356.2L280.47 355.08L284.57 353.8L288.61 352.37L292.58 350.78L296.46 349.05L300.27 347.17L303.99 345.15L307.62 342.99L311.16 340.7L314.6 338.28L317.94 335.73L321.18 333.05L324.32 330.26L327.34 327.34L330.26 324.32L333.05 321.18L335.72 317.94L338.28 314.6L340.7 311.16L342.99 307.62L345.15 303.99L347.17 300.27L349.05 296.46L350.78 292.58L352.37 288.61L353.8 284.58L355.08 280.47L356.2 276.29L357.16 272.05L357.95 267.75L358.57 263.39L359.02 258.97L359.29 254.51L359.38 250L359.29 245.5L359.02 241.03L358.57 236.62L357.95 232.26L357.16 227.96L356.2 223.72L355.08 219.54L353.8 215.43L352.37 211.39L350.78 207.43L349.05 203.54L347.17 199.74L345.15 196.02L342.99 192.39L340.7 188.85L338.28 185.41L335.72 182.07L333.05 178.82L330.26 175.69L327.34 172.66L324.32 169.75L321.18 166.96L317.94 164.28L314.6 161.73L311.16 159.31L307.62 157.02L303.99 154.86L300.27 152.84L296.46 150.96L292.58 149.22L288.61 147.64L284.57 146.21L280.47 144.93L276.29 143.81L272.05 142.85L267.74 142.06L263.39 141.44L258.97 140.99L254.51 140.72L250 140.63L245.5 140.72L241.03 140.99Z" id="d5RgWB5S2"></path><path d="M425 250C425 346.59 346.59 425 250 425C153.41 425 75 346.59 75 250C75 153.42 153.41 75 250 75C346.59 75 425 153.42 425 250Z" id="g7EdLsANc"></path><path d="M400 250C400 332.79 332.79 400 250 400C167.21 400 100 332.79 100 250C100 167.21 167.21 100 250 100C332.79 100 400 167.21 400 250Z" id="b1v8tIeGk9"></path><path d="M247.86 350C219.53 277.04 203.79 236.5 200.64 228.39C195.94 216.34 189.49 207.04 188.25 204.66C180.56 192.99 169.21 194.15 167.09 192.99C162.82 192.99 158.12 193.79 152.99 195.4L150 188.91L203.21 170L212.61 170L268.8 312.55C289.7 275.52 301.31 254.94 303.63 250.82C313.25 234.14 312.29 227.3 313.25 224.69C313.25 217.08 309.98 205.5 309.62 203.37C306.84 193.36 307.12 189.85 306.84 188.35C306.84 170 327.41 171.83 329.7 170C350 170 347.97 185.01 350 186.68C350 197.68 340.6 218.69 321.79 249.71L260.68 350L247.86 350Z" id="aiNbUeIt9"></path></defs><g><g><g><use xlink:href="#d5RgWB5S2" opacity="1" fill="#6217af" fill-opacity="1"></use></g><g><use xlink:href="#g7EdLsANc" opacity="1" fill="#b780ef" fill-opacity="1"></use></g><g><use xlink:href="#b1v8tIeGk9" opacity="1" fill="#8c35e5" fill-opacity="1"></use></g><g><use xlink:href="#aiNbUeIt9" opacity="1" fill="#ffffff" fill-opacity="1"></use></g></g></g></svg>